<svg id="Layer_1" data-name="Layer 1" xmlns="http://www.w3.org/2000/svg" xmlns:xlink="http://www.w3.org/1999/xlink" viewBox="0 0 26 25"><defs><style>.cls-1,.cls-3{fill:none;}.cls-2{clip-path:url(#clip-path);}.cls-3{stroke:#00aeef;stroke-miterlimit:10;stroke-width:2px;}</style><clipPath id="clip-path" transform="translate(225 -79)"><rect class="cls-1" x="-225" y="79" width="26" height="25"/></clipPath></defs><title>icon-2</title><g class="cls-2"><polyline class="cls-3" points="25 8 13 17 1 8"/><polyline class="cls-3" points="6 4.67 1 8 1 24 25 24 25 8 20 4.67"/><polyline class="cls-3" points="6 12 6 1 20 1 20 12"/><circle class="cls-3" cx="18.5" cy="2.5" r="1.5"/><circle class="cls-3" cx="7.5" cy="2.5" r="1.5"/><circle class="cls-3" cx="13" cy="7" r="1.5"/><path class="cls-3" d="M-209,93.78V93a3,3,0,0,0-3-3,3,3,0,0,0-3,3v0.78" transform="translate(225 -79)"/></g></svg>