<svg id="Layer_1" data-name="Layer 1" xmlns="http://www.w3.org/2000/svg" xmlns:xlink="http://www.w3.org/1999/xlink" viewBox="0 0 24 24"><defs><style>.cls-1,.cls-3{fill:none;}.cls-2{clip-path:url(#clip-path);}.cls-3{stroke:#00aeef;stroke-miterlimit:10;stroke-width:2px;}</style><clipPath id="clip-path" transform="translate(157 -31)"><rect class="cls-1" x="-157" y="31" width="24" height="24"/></clipPath></defs><title>icon-3</title><g class="cls-2"><path class="cls-3" d="M-134,44a3,3,0,0,0-2-2.82V41a9,9,0,0,0-9-9,9,9,0,0,0-9,9v0.18A3,3,0,0,0-156,44a3,3,0,0,0,2.2,2.88A9,9,0,0,0-145,54a9,9,0,0,0,8.8-7.12A3,3,0,0,0-134,44Z" transform="translate(157 -31)"/><rect class="cls-3" x="11" y="16" width="2" height="2"/><path class="cls-3" d="M-148,41h0a3,3,0,0,1,3-3,3,3,0,0,1,3,3,3,3,0,0,1-3,3v2" transform="translate(157 -31)"/></g></svg>