<svg id="Layer_1" data-name="Layer 1" xmlns="http://www.w3.org/2000/svg" xmlns:xlink="http://www.w3.org/1999/xlink" viewBox="0 0 25.96 25.96"><defs><style>.cls-1,.cls-3{fill:none;}.cls-2{clip-path:url(#clip-path);}.cls-3{stroke:#00aeef;stroke-miterlimit:10;stroke-width:2px;}</style><clipPath id="clip-path" transform="translate(162.59 -82.72)"><rect class="cls-1" x="-162.59" y="82.72" width="25.96" height="25.96"/></clipPath></defs><title>icon-6</title><g class="cls-2"><circle class="cls-3" cx="8.38" cy="17.58" r="5.77"/><line class="cls-3" x1="0.38" y1="20.89" x2="3.05" y2="19.79"/><line class="cls-3" x1="13.72" y1="15.37" x2="16.38" y2="14.26"/><line class="cls-3" x1="5.07" y1="9.58" x2="6.17" y2="12.24"/><line class="cls-3" x1="10.59" y1="22.91" x2="11.7" y2="25.58"/><line class="cls-3" x1="0.38" y1="14.26" x2="3.05" y2="15.37"/><line class="cls-3" x1="13.72" y1="19.79" x2="16.38" y2="20.89"/><line class="cls-3" x1="11.7" y1="9.58" x2="10.59" y2="12.24"/><line class="cls-3" x1="6.17" y1="22.91" x2="5.07" y2="25.58"/><circle class="cls-3" cx="-143.63" cy="89.72" r="4.67" transform="translate(117.32 -130.86) rotate(-22.5)"/><line class="cls-3" x1="14.01" y1="11.95" x2="15.66" y2="10.3"/><line class="cls-3" x1="22.26" y1="3.7" x2="23.91" y2="2.05"/><line class="cls-3" x1="14.01" y1="2.05" x2="15.66" y2="3.7"/><line class="cls-3" x1="22.26" y1="10.3" x2="23.91" y2="11.95"/><line class="cls-3" x1="11.96" y1="7" x2="14.29" y2="7"/><line class="cls-3" x1="23.63" y1="7" x2="25.96" y2="7"/><line class="cls-3" x1="18.96" x2="18.96" y2="2.33"/><line class="cls-3" x1="18.96" y1="11.67" x2="18.96" y2="14"/></g></svg>