<svg id="Layer_1" data-name="Layer 1" xmlns="http://www.w3.org/2000/svg" xmlns:xlink="http://www.w3.org/1999/xlink" viewBox="0 0 305.76 93.23"><defs><style>.cls-1{fill:none;}.cls-2{clip-path:url(#clip-path);}</style><clipPath id="clip-path" transform="translate(426.62 -46.62)"><rect class="cls-1" x="-426.62" y="46.62" width="305.76" height="93.23"/></clipPath></defs><title>modal-logo</title><g class="cls-2"><path d="M-392.13,73.46a10.78,10.78,0,0,0-3.21-3.75,17.54,17.54,0,0,0-4.7-2.39c-1.7-.58-3.59-1.16-5.66-1.72-1.67-.42-3.15-0.81-4.4-1.17A14.42,14.42,0,0,1-413,63.31a3.76,3.76,0,0,1-1.36-1.15,2.87,2.87,0,0,1-.37-1.59,3.46,3.46,0,0,1,1.35-3,8,8,0,0,1,4.84-1.18,15.82,15.82,0,0,1,3.48.37,17.16,17.16,0,0,1,3,1A15.34,15.34,0,0,1-399.71,59a7.48,7.48,0,0,1,1.38,1.11l1.47,1.61,4.68-8.44-1.1-.82a27.36,27.36,0,0,0-6.54-3.5,23.42,23.42,0,0,0-8.34-1.43,22.07,22.07,0,0,0-6.3.88A15.45,15.45,0,0,0-419.71,51a12.76,12.76,0,0,0-3.56,4.48,13.79,13.79,0,0,0-1.28,6,11.49,11.49,0,0,0,.92,4.79,10.1,10.1,0,0,0,2.7,3.53,15,15,0,0,0,4.23,2.43,50.59,50.59,0,0,0,5.53,1.77c1.75,0.46,3.34.89,4.7,1.29a16.77,16.77,0,0,1,3.23,1.26A4.91,4.91,0,0,1-401.56,78a2.81,2.81,0,0,1,.46,1.69,2.92,2.92,0,0,1-1.35,2.66,9,9,0,0,1-4.9,1.1,18.22,18.22,0,0,1-4.32-.5,26.68,26.68,0,0,1-3.91-1.26,17.8,17.8,0,0,1-3-1.57,12.8,12.8,0,0,1-1.9-1.48L-422,77.14l-4.64,8.57,1.05,0.81a27.55,27.55,0,0,0,8.41,4.39,31.06,31.06,0,0,0,9.57,1.49,26,26,0,0,0,6.16-.71,15.89,15.89,0,0,0,5.29-2.32,12,12,0,0,0,3.76-4.22,13.05,13.05,0,0,0,1.4-6.24,11.88,11.88,0,0,0-1.16-5.47" transform="translate(426.62 -46.62)"/><path d="M-359.91,69.7a17.54,17.54,0,0,0-4.7-2.39c-1.7-.58-3.59-1.16-5.66-1.72-1.67-.42-3.15-0.81-4.4-1.17a14.41,14.41,0,0,1-2.87-1.11,3.75,3.75,0,0,1-1.36-1.15,2.88,2.88,0,0,1-.37-1.59,3.46,3.46,0,0,1,1.35-3,8,8,0,0,1,4.84-1.18,15.88,15.88,0,0,1,3.48.37,17.23,17.23,0,0,1,3,1A15.39,15.39,0,0,1-364.27,59a7.56,7.56,0,0,1,1.38,1.11l1.47,1.61,4.68-8.43-1.1-.82a27.36,27.36,0,0,0-6.54-3.5,23.42,23.42,0,0,0-8.34-1.43,22.06,22.06,0,0,0-6.29.88A15.44,15.44,0,0,0-384.27,51a12.78,12.78,0,0,0-3.56,4.48,13.81,13.81,0,0,0-1.28,6,11.5,11.5,0,0,0,.92,4.79,10.1,10.1,0,0,0,2.7,3.52,15,15,0,0,0,4.23,2.43,50.53,50.53,0,0,0,5.53,1.77c1.75,0.46,3.34.89,4.7,1.29a16.76,16.76,0,0,1,3.23,1.26A4.91,4.91,0,0,1-366.13,78a2.8,2.8,0,0,1,.46,1.69A2.92,2.92,0,0,1-367,82.34a9,9,0,0,1-4.9,1.1,18.27,18.27,0,0,1-4.32-.51,26.8,26.8,0,0,1-3.91-1.26,17.8,17.8,0,0,1-3-1.56,12.69,12.69,0,0,1-1.9-1.48l-1.48-1.49-4.64,8.57,1.05,0.81a27.53,27.53,0,0,0,8.41,4.39,31.09,31.09,0,0,0,9.57,1.5A26,26,0,0,0-366,91.7a15.91,15.91,0,0,0,5.29-2.32,12,12,0,0,0,3.76-4.22,13.06,13.06,0,0,0,1.4-6.24,11.88,11.88,0,0,0-1.16-5.46,10.77,10.77,0,0,0-3.21-3.76" transform="translate(426.62 -46.62)"/><polygon points="101.56 27.93 80.38 1.22 72.96 1.22 72.96 45.45 82.58 45.45 82.58 19.38 103.54 45.45 111.23 45.45 111.23 1.27 101.56 1.27 101.56 27.93"/><path d="M-271.67,54.31a19.59,19.59,0,0,0-6.79-4.79,23.4,23.4,0,0,0-9.34-1.75H-304V92h16.15a23.83,23.83,0,0,0,8.86-1.59,19.5,19.5,0,0,0,6.86-4.53,20.17,20.17,0,0,0,4.36-7,25.72,25.72,0,0,0,1.52-9,26.2,26.2,0,0,0-1.36-8.47,20.11,20.11,0,0,0-4.11-7.06M-287.8,83.15h-6.54V56.63h6.54a12.42,12.42,0,0,1,5,1,10.74,10.74,0,0,1,3.69,2.65,11.52,11.52,0,0,1,2.31,4.11,17.47,17.47,0,0,1,.82,5.47,17.88,17.88,0,0,1-.79,5.43A11.93,11.93,0,0,1-279,79.44a10.37,10.37,0,0,1-3.68,2.72,12.48,12.48,0,0,1-5.12,1" transform="translate(426.62 -46.62)"/><path d="M-241.29,81.07a5.29,5.29,0,0,1-1,1.48,6.54,6.54,0,0,1-1.5,1.19,7.35,7.35,0,0,1-1.89.76,7.91,7.91,0,0,1-4.88-.26,7.31,7.31,0,0,1-2.34-1.5,8.1,8.1,0,0,1-1.7-2.35,7.72,7.72,0,0,1-.51-1.4h23.77l0.19-1.35q0.06-.43.12-1.09t0.07-1.45a18,18,0,0,0-1.18-6.43,16.16,16.16,0,0,0-3.43-5.45,17,17,0,0,0-5.39-3.73,17.21,17.21,0,0,0-7-1.41,17.89,17.89,0,0,0-7.1,1.37,16.38,16.38,0,0,0-5.47,3.78,17.19,17.19,0,0,0-3.5,5.54,18,18,0,0,0-1.24,6.62A17.76,17.76,0,0,0-264,82a16.88,16.88,0,0,0,3.51,5.48,16.56,16.56,0,0,0,5.46,3.74,17.72,17.72,0,0,0,7,1.37,17.65,17.65,0,0,0,9.23-2.39,14.23,14.23,0,0,0,5.8-6.28l0.76-1.65-8.5-2.44Zm0.6-9.61h-14.56a8.36,8.36,0,0,1,.48-1.31,7.21,7.21,0,0,1,1.61-2.26,7.51,7.51,0,0,1,2.32-1.46,7.87,7.87,0,0,1,5.65,0,7.42,7.42,0,0,1,2.34,1.46,7.56,7.56,0,0,1,1.65,2.28,8.28,8.28,0,0,1,.49,1.29" transform="translate(426.62 -46.62)"/><path d="M-205.89,74.71a16.61,16.61,0,0,0-4.12-2c-1.55-.51-3.4-1-5.5-1.54-1.21-.3-2.24-0.58-3.06-0.82a7.73,7.73,0,0,1-1.7-.68,1.44,1.44,0,0,1-.55-0.5,1.75,1.75,0,0,1-.16-0.82,1.9,1.9,0,0,1,.92-1.87,6.33,6.33,0,0,1,3.3-.79,13.74,13.74,0,0,1,8.33,2.93l1.29,1,4.52-6.45-1.23-.91a21.69,21.69,0,0,0-5.93-3.06,21.3,21.3,0,0,0-6.87-1.13,18.15,18.15,0,0,0-5.1.7A12.74,12.74,0,0,0-226,60.93,10.73,10.73,0,0,0-229,64.48a10.42,10.42,0,0,0-1.1,4.83,8.58,8.58,0,0,0,.72,3.64A7,7,0,0,0-227,75.71a15.39,15.39,0,0,0,3.67,1.82,52,52,0,0,0,5,1.47,31.65,31.65,0,0,1,5.68,1.77,1.4,1.4,0,0,1,1,1.4,2,2,0,0,1-1,1.82,6.83,6.83,0,0,1-3.72.84,17.82,17.82,0,0,1-10.16-3.6l-1.35-.94-4.28,6.88L-231,88A17.48,17.48,0,0,0-227.76,90a26.72,26.72,0,0,0,3.69,1.42,29,29,0,0,0,3.92.89,26.15,26.15,0,0,0,4,.31,19.73,19.73,0,0,0,5.5-.73,13.33,13.33,0,0,0,4.39-2.14,10,10,0,0,0,2.91-3.5,10.16,10.16,0,0,0,1-4.58,8.71,8.71,0,0,0-.87-4,8.06,8.06,0,0,0-2.68-3" transform="translate(426.62 -46.62)"/><rect x="226.82" y="11.98" width="9.5" height="33.41"/><path d="M-162.75,61.67a16.23,16.23,0,0,0-2.11-1.6,13.27,13.27,0,0,0-7.27-2,14.54,14.54,0,0,0-6.38,1.4,15.46,15.46,0,0,0-4.93,3.74,16.68,16.68,0,0,0-3.16,5.49,19.82,19.82,0,0,0-1.1,6.63,18.55,18.55,0,0,0,1.11,6.38,17.53,17.53,0,0,0,3.12,5.4,15.11,15.11,0,0,0,4.84,3.77,14,14,0,0,0,6.28,1.41,14.15,14.15,0,0,0,6.7-1.69,13,13,0,0,0,2.16-1.44v0.4a7.89,7.89,0,0,1-.64,3.33,6.22,6.22,0,0,1-1.69,2.23,7.15,7.15,0,0,1-2.55,1.33,11.68,11.68,0,0,1-3.29.46,12.34,12.34,0,0,1-5.22-1.13,9.57,9.57,0,0,1-3.87-3.19l-1-1.45-5.92,5.54,0.85,1.12a18.08,18.08,0,0,0,6.15,5.22,19.66,19.66,0,0,0,9.06,1.88,22.83,22.83,0,0,0,6.84-1,16.89,16.89,0,0,0,5.64-3,14,14,0,0,0,3.81-4.85A15,15,0,0,0-154,89.58v-31h-8.75v3.06ZM-166,82.5A8.24,8.24,0,0,1-168,83.62a6.43,6.43,0,0,1-2.24.4,7,7,0,0,1-3.06-.66,8.27,8.27,0,0,1-2.51-1.83,8.46,8.46,0,0,1-1.68-2.69,9,9,0,0,1-.61-3.33,10.17,10.17,0,0,1,.55-3.31,9.78,9.78,0,0,1,1.55-2.87,7.36,7.36,0,0,1,2.32-2,6.1,6.1,0,0,1,3-.71,7,7,0,0,1,4.27,1.51,9.14,9.14,0,0,1,3,3.78v7.38a5.51,5.51,0,0,1-.84,1.58A8.06,8.06,0,0,1-166,82.5" transform="translate(426.62 -46.62)"/><path d="M-121.29,67a13.37,13.37,0,0,0-1.61-4.46,8.91,8.91,0,0,0-3.36-3.26,10.71,10.71,0,0,0-5.25-1.18,16.84,16.84,0,0,0-8,2,14.88,14.88,0,0,0-2.73,1.87V58.6h-8.92V92h9.5V72.7a8.75,8.75,0,0,1,1.18-2.2,9.88,9.88,0,0,1,1.88-2,8,8,0,0,1,2.21-1.24,6.57,6.57,0,0,1,2.27-.42,3.07,3.07,0,0,1,2.72,1.29c0.5,0.7,1.1,2.19,1.1,5.31V92h9.5V72a28,28,0,0,0-.43-5" transform="translate(426.62 -46.62)"/><path d="M-200,51.68a5.07,5.07,0,0,0,5.06,5.07,5.07,5.07,0,0,0,5.07-5.07,5.07,5.07,0,0,0-5.07-5.07A5.07,5.07,0,0,0-200,51.68" transform="translate(426.62 -46.62)"/><path d="M-366.13,130.58a2.71,2.71,0,0,1-2.11,2.65,3,3,0,0,1,2.51,3.08c0,2.09-1.83,3.4-4.71,3.4h-6V127.49h5.8c2.77,0,4.53,1.2,4.53,3.08m-3.28.56a1.19,1.19,0,0,0-1.43-1.15h-2.44v2.37h2.44a1.23,1.23,0,0,0,1.43-1.22m0.38,4.77c0-.77-0.7-1.25-1.81-1.24h-2.44v2.56h2.44c1.11,0,1.81-.49,1.81-1.32" transform="translate(426.62 -46.62)"/><path d="M-347.72,133.59a6.28,6.28,0,0,1-6.61,6.26,6.28,6.28,0,0,1-6.6-6.26c0-3.55,2.82-6.19,6.6-6.19s6.61,2.65,6.61,6.19m-9.93,0a3.45,3.45,0,0,0,3.36,3.52,3.38,3.38,0,0,0,3.29-3.52,3.35,3.35,0,0,0-3.29-3.48,3.4,3.4,0,0,0-3.36,3.48" transform="translate(426.62 -46.62)"/><path d="M-335.32,139.71l-1.78-3.38h-2.37v3.38h-3.19V127.49h5.49c3.24,0,5.09,1.57,5.09,4.29a4.13,4.13,0,0,1-2.18,3.94l2.54,4h-3.61Zm-4.15-5.93h2.32a1.78,1.78,0,0,0,2-1.9,1.76,1.76,0,0,0-2-1.85h-2.32v3.75Z" transform="translate(426.62 -46.62)"/><polygon points="103.92 80.88 109.46 88.23 109.46 80.88 112.43 80.88 112.43 93.09 109.64 93.09 104.1 85.77 104.1 93.09 101.12 93.09 101.12 80.88 103.92 80.88"/><polygon points="136.43 80.88 136.43 83.51 132.77 83.51 132.77 93.09 129.58 93.09 129.58 83.51 125.95 83.51 125.95 80.88 136.43 80.88"/><path d="M-272.8,133.59a6.28,6.28,0,0,1-6.6,6.26,6.28,6.28,0,0,1-6.6-6.26c0-3.55,2.82-6.19,6.6-6.19s6.6,2.65,6.6,6.19m-9.93,0a3.45,3.45,0,0,0,3.36,3.52,3.38,3.38,0,0,0,3.29-3.52,3.35,3.35,0,0,0-3.29-3.48,3.4,3.4,0,0,0-3.36,3.48" transform="translate(426.62 -46.62)"/><path d="M-254.26,130.11a3.31,3.31,0,0,0-3.31,3.43,3.33,3.33,0,0,0,3.31,3.47,4.53,4.53,0,0,0,3-1.43l1.86,2a7.3,7.3,0,0,1-5.07,2.27,6.18,6.18,0,0,1-6.41-6.27,6.22,6.22,0,0,1,6.53-6.17,7,7,0,0,1,4.93,2.09l-1.85,2.21a4.16,4.16,0,0,0-3-1.6" transform="translate(426.62 -46.62)"/><path d="M-236.83,139.71l-1.78-3.38H-241v3.38h-3.19V127.49h5.49c3.24,0,5.09,1.57,5.09,4.29a4.14,4.14,0,0,1-2.18,3.94l2.54,4h-3.61Zm-4.15-5.93h2.32a1.78,1.78,0,0,0,2-1.9,1.76,1.76,0,0,0-2-1.85H-241v3.75Z" transform="translate(426.62 -46.62)"/><polygon points="208.54 80.88 208.54 83.42 202.09 83.42 202.09 85.7 207.91 85.7 207.91 88.23 202.09 88.25 202.09 90.55 208.72 90.55 208.72 93.09 198.91 93.09 198.91 80.88 208.54 80.88"/><path d="M-204,137.55h-5.28l-0.85,2.16h-3.28l5.25-12.22h3.28l5.12,12.22h-3.4Zm-0.94-2.44-1.67-4.36-1.71,4.36h3.38Z" transform="translate(426.62 -46.62)"/><polygon points="240.67 80.88 240.67 83.51 237.01 83.51 237.01 93.09 233.82 93.09 233.82 83.51 230.2 83.51 230.2 80.88 240.67 80.88"/><polygon points="255.43 80.88 255.43 83.42 248.98 83.42 248.98 85.7 254.8 85.7 254.8 88.23 248.98 88.25 248.98 90.55 255.61 90.55 255.61 93.09 245.79 93.09 245.79 80.88 255.43 80.88"/></g></svg>