<svg id="Layer_1" data-name="Layer 1" xmlns="http://www.w3.org/2000/svg" viewBox="0 0 215.13 73.51"><defs><style>.cls-1{fill:#fff}</style></defs><title>logo</title><path class="cls-1" d="M26 22.33a7.42 7.42 0 0 0-2.21-2.59 12.08 12.08 0 0 0-3.24-1.65c-1.17-.4-2.48-.8-3.9-1.18-1.15-.29-2.17-.56-3-.81a9.94 9.94 0 0 1-2-.77 2.59 2.59 0 0 1-.94-.79 2 2 0 0 1-.26-1.1 2.39 2.39 0 0 1 .93-2.06 5.53 5.53 0 0 1 3.34-.82 10.93 10.93 0 0 1 2.4.25 11.89 11.89 0 0 1 2.07.66 10.6 10.6 0 0 1 1.61.85 5.17 5.17 0 0 1 1 .76l1 1.11 3.22-5.81-.76-.56a18.87 18.87 0 0 0-4.51-2.42 16.16 16.16 0 0 0-5.75-1 15.21 15.21 0 0 0-4.34.6 10.64 10.64 0 0 0-3.71 1.87A8.8 8.8 0 0 0 4.49 10a9.51 9.51 0 0 0-.89 4.16 7.92 7.92 0 0 0 .64 3.3 7 7 0 0 0 1.86 2.39A10.31 10.31 0 0 0 9 21.53a35 35 0 0 0 3.81 1.22c1.21.31 2.3.61 3.24.89a11.52 11.52 0 0 1 2.22.87 3.38 3.38 0 0 1 1.15.94 1.94 1.94 0 0 1 .31 1.17 2 2 0 0 1-.93 1.83 6.17 6.17 0 0 1-3.38.76 12.58 12.58 0 0 1-3-.35A18.39 18.39 0 0 1 9.79 28a12.19 12.19 0 0 1-2.07-1.08 8.84 8.84 0 0 1-1.31-1l-1-1-3.2 5.91.73.56a19 19 0 0 0 5.8 3 21.43 21.43 0 0 0 6.6 1 17.93 17.93 0 0 0 4.25-.49 11 11 0 0 0 3.65-1.6 8.25 8.25 0 0 0 2.59-2.91 9 9 0 0 0 1-4.3 8.19 8.19 0 0 0-.83-3.76zm22.17-2.59a12.08 12.08 0 0 0-3.24-1.65c-1.17-.4-2.48-.8-3.9-1.18-1.15-.29-2.17-.56-3-.81a9.94 9.94 0 0 1-2-.77 2.59 2.59 0 0 1-.94-.79 2 2 0 0 1-.26-1.1 2.39 2.39 0 0 1 .93-2.06 5.53 5.53 0 0 1 3.34-.82 10.93 10.93 0 0 1 2.4.25 11.89 11.89 0 0 1 2.07.66 10.6 10.6 0 0 1 1.61.85 5.17 5.17 0 0 1 1 .76l1 1.11 3.22-5.81-.76-.56a18.87 18.87 0 0 0-4.51-2.42 16.16 16.16 0 0 0-5.75-1A15.21 15.21 0 0 0 35 5a10.64 10.64 0 0 0-3.62 1.85A8.8 8.8 0 0 0 28.92 10a9.51 9.51 0 0 0-.92 4.12 7.92 7.92 0 0 0 .64 3.3 7 7 0 0 0 1.86 2.43 10.31 10.31 0 0 0 2.92 1.68 35 35 0 0 0 3.81 1.22c1.21.31 2.3.61 3.24.89a11.52 11.52 0 0 1 2.22.87 3.38 3.38 0 0 1 1.15.94 1.94 1.94 0 0 1 .31 1.17 2 2 0 0 1-.93 1.83 6.17 6.17 0 0 1-3.38.76 12.58 12.58 0 0 1-3-.35 18.39 18.39 0 0 1-2.7-.87 12.19 12.19 0 0 1-2.07-1.08 8.84 8.84 0 0 1-1.31-1l-1-1-3.2 5.91.73.56a19 19 0 0 0 5.8 3 21.43 21.43 0 0 0 6.6 1A17.93 17.93 0 0 0 44 34.9a11 11 0 0 0 3.65-1.6 8.25 8.25 0 0 0 2.59-2.91 9 9 0 0 0 1-4.3 8.19 8.19 0 0 0-.8-3.77 7.42 7.42 0 0 0-2.27-2.58zm24.03 3.34L57.59 4.66h-5.11v30.49h6.63V17.18l14.45 17.97h5.3V4.7H72.2v18.38zM109 9.12a13.5 13.5 0 0 0-4.68-3.3 16.12 16.12 0 0 0-6.44-1.21H86.75v30.5h11.13A16.44 16.44 0 0 0 104 34a13.45 13.45 0 0 0 4.73-3.13 13.92 13.92 0 0 0 3-4.84 17.72 17.72 0 0 0 1-6.23 18.06 18.06 0 0 0-.94-5.84A13.85 13.85 0 0 0 109 9.12zM97.88 29h-4.51V10.73h4.51a8.57 8.57 0 0 1 3.48.67 7.4 7.4 0 0 1 2.55 1.83 7.93 7.93 0 0 1 1.6 2.83 12 12 0 0 1 .56 3.77 12.34 12.34 0 0 1-.55 3.74 8.25 8.25 0 0 1-1.57 2.88 7.15 7.15 0 0 1-2.53 1.87 8.61 8.61 0 0 1-3.54.68zm32.07-1.43a3.64 3.64 0 0 1-.68 1 4.52 4.52 0 0 1-1 .82 5.06 5.06 0 0 1-1.3.53 5.45 5.45 0 0 1-3.36-.18 5 5 0 0 1-1.61-1 5.56 5.56 0 0 1-1.17-1.62 5.42 5.42 0 0 1-.36-1h16.39l.13-.93q0-.3.09-.75t0-1a12.41 12.41 0 0 0-.81-4.44 11.13 11.13 0 0 0-2.36-3.75 11.68 11.68 0 0 0-3.71-2.57 11.86 11.86 0 0 0-4.85-1 12.33 12.33 0 0 0-4.9.95 11.28 11.28 0 0 0-3.77 2.6 11.83 11.83 0 0 0-2.41 3.82 12.4 12.4 0 0 0-.85 4.57 12.25 12.25 0 0 0 .86 4.55 11.64 11.64 0 0 0 2.4 3.83 11.41 11.41 0 0 0 3.77 2.58 13 13 0 0 0 11.22-.7 9.8 9.8 0 0 0 4-4.33l.52-1.14-5.86-1.68zm.41-6.63h-10a5.86 5.86 0 0 1 .33-.9 5 5 0 0 1 1.11-1.56 5.15 5.15 0 0 1 1.6-1 5.43 5.43 0 0 1 3.89 0 5.12 5.12 0 0 1 1.62 1 5.24 5.24 0 0 1 1.09 1.58 5.64 5.64 0 0 1 .36.88z"/><path class="cls-1" d="M154.35 23.19a11.44 11.44 0 0 0-2.84-1.35c-1.07-.35-2.34-.71-3.79-1.06-.84-.21-1.55-.4-2.11-.57a5.3 5.3 0 0 1-1.17-.47 1 1 0 0 1-.38-.35 1.21 1.21 0 0 1-.11-.56 1.31 1.31 0 0 1 .64-1.29 4.37 4.37 0 0 1 2.28-.54 9.48 9.48 0 0 1 5.74 2l.89.66 3.12-4.45-.85-.63a15 15 0 0 0-4.09-2.11 14.69 14.69 0 0 0-4.74-.78 12.52 12.52 0 0 0-3.52.48 8.79 8.79 0 0 0-3 1.48 7.39 7.39 0 0 0-2 2.45 7.18 7.18 0 0 0-.76 3.33 5.92 5.92 0 0 0 .5 2.51 4.8 4.8 0 0 0 1.63 1.9 10.6 10.6 0 0 0 2.53 1.25 35.7 35.7 0 0 0 3.46 1 21.79 21.79 0 0 1 3.92 1.22 1 1 0 0 1 .68 1 1.35 1.35 0 0 1-.67 1.25 4.7 4.7 0 0 1-2.56.58 12.28 12.28 0 0 1-7-2.48l-.93-.65-3 4.75.77.6a12 12 0 0 0 2.21 1.34 18.28 18.28 0 0 0 2.54 1 19.83 19.83 0 0 0 2.7.61 18 18 0 0 0 2.74.21A13.59 13.59 0 0 0 151 35a9.19 9.19 0 0 0 3-1.48 6.91 6.91 0 0 0 2-2.41 7 7 0 0 0 .8-3.11 6 6 0 0 0-.6-2.75 5.55 5.55 0 0 0-1.85-2.06zm4.2-11.11h6.55v23.03h-6.55zm25.54 2.11a11.21 11.21 0 0 0-1.45-1.1 9.15 9.15 0 0 0-5-1.37 10 10 0 0 0-4.4 1 10.66 10.66 0 0 0-3.4 2.58 11.51 11.51 0 0 0-2.2 3.7 13.65 13.65 0 0 0-.76 4.57 12.78 12.78 0 0 0 .76 4.4 12.09 12.09 0 0 0 2.15 3.72 10.42 10.42 0 0 0 3.34 2.6 9.93 9.93 0 0 0 8.95-.19 9 9 0 0 0 1.49-1v.28a5.44 5.44 0 0 1-.44 2.3 4.29 4.29 0 0 1-1.13 1.59 4.91 4.91 0 0 1-1.75.92 8 8 0 0 1-2.27.31 8.5 8.5 0 0 1-3.6-.78 6.6 6.6 0 0 1-2.67-2.2l-.72-1-4.08 3.82.58.77a12.46 12.46 0 0 0 4.24 3.6 13.56 13.56 0 0 0 6.24 1.3 15.75 15.75 0 0 0 4.71-.69 11.65 11.65 0 0 0 3.89-2 9.62 9.62 0 0 0 2.63-3.35 10.36 10.36 0 0 0 .94-4.5V12.08h-6zm-2.22 14.37a5.67 5.67 0 0 1-1.43.77 4.43 4.43 0 0 1-1.54.27 4.82 4.82 0 0 1-2.11-.45 5.71 5.71 0 0 1-1.73-1.26 5.84 5.84 0 0 1-1.17-1.89 6.18 6.18 0 0 1-.42-2.3 7 7 0 0 1 .38-2.28 6.75 6.75 0 0 1 1.07-2 5.08 5.08 0 0 1 1.6-1.35 4.2 4.2 0 0 1 2.06-.49 4.79 4.79 0 0 1 2.95 1 6.29 6.29 0 0 1 2 2.61v5.09a3.79 3.79 0 0 1-.58 1.09 5.56 5.56 0 0 1-1.08 1.19zm30.8-10.7a9.23 9.23 0 0 0-1.11-3.07 6.13 6.13 0 0 0-2.32-2.25 7.38 7.38 0 0 0-3.62-.81 11.61 11.61 0 0 0-5.54 1.35 10.27 10.27 0 0 0-1.88 1.29v-2.29h-6.15v23h6.55V21.8a6.06 6.06 0 0 1 .81-1.52 6.88 6.88 0 0 1 1.29-1.35 5.56 5.56 0 0 1 1.52-.85 4.54 4.54 0 0 1 1.56-.29 2.12 2.12 0 0 1 1.88.89 6.37 6.37 0 0 1 .76 3.66v12.77H213V21.3a19.34 19.34 0 0 0-.33-3.44z"/><circle class="cls-1" cx="161.92" cy="7.31" r="3.49"/><path class="cls-1" d="M43.88 61.7a1.87 1.87 0 0 1-1.45 1.83 2.08 2.08 0 0 1 1.73 2.13c0 1.44-1.26 2.34-3.24 2.34h-4.16v-8.42h4c1.91 0 3.12.82 3.12 2.12zm-2.26.38c0-.5-.37-.8-1-.79H39v1.63h1.68c.57.01.95-.3.95-.83zm.26 3.29c0-.53-.48-.86-1.25-.85H39v1.77h1.68c.73 0 1.21-.29 1.21-.91zm14.69-1.59A4.56 4.56 0 1 1 52 59.52a4.33 4.33 0 0 1 4.57 4.26zm-6.85 0A2.38 2.38 0 0 0 52 66.22a2.42 2.42 0 1 0-2.32-2.43zM65.13 68l-1.23-2.33h-1.63V68h-2.2v-8.42h3.78c2.23 0 3.51 1.08 3.51 3a2.85 2.85 0 0 1-1.5 2.72l1.75 2.7zm-2.86-4.08h1.6a1.23 1.23 0 0 0 1.41-1.31c0-.83-.52-1.27-1.41-1.27h-1.6zm11.55-4.34l3.82 5.07v-5.07h2V68h-1.88l-3.82-5v5h-2.05v-8.42zm22.41 0v1.81h-2.52V68h-2.2v-6.61H89v-1.81zm11.99 4.2a4.56 4.56 0 1 1-4.55-4.26 4.33 4.33 0 0 1 4.55 4.26zm-6.85 0a2.38 2.38 0 0 0 2.32 2.43 2.42 2.42 0 1 0-2.32-2.43zm19.63-2.4a2.38 2.38 0 0 0 0 4.76 3.12 3.12 0 0 0 2.09-1l1.29 1.38a5 5 0 0 1-3.5 1.56 4.29 4.29 0 1 1 .08-8.58 4.83 4.83 0 0 1 3.4 1.44l-1.27 1.53a2.87 2.87 0 0 0-2.09-1.09zM133 68l-1.23-2.33h-1.63V68H128v-8.42h3.78c2.23 0 3.51 1.08 3.51 3a2.85 2.85 0 0 1-1.5 2.72l1.72 2.7zm-2.86-4.08h1.6a1.23 1.23 0 0 0 1.41-1.31c0-.83-.52-1.27-1.41-1.27h-1.6zm15.81-4.34v1.75h-4.45v1.57h4v1.74h-4v1.59h4.57V68h-6.77v-8.42zm9.7 6.93H152l-.58 1.49h-2.26l3.62-8.42H155l3.56 8.42h-2.34zm-.65-1.68l-1.15-3-1.18 3zm13.1-5.25v1.81h-2.52V68h-2.2v-6.61h-2.5v-1.81zm10.17 0v1.75h-4.45v1.57h4v1.74h-4v1.59h4.57V68h-6.76v-8.42z"/></svg>